<svg width="24" height="24" viewBox="0 0 24 24" fill="none" xmlns="http://www.w3.org/2000/svg">
    <style>
        path {
            fill: black;
        }

        @media (prefers-color-scheme: dark) {
            path {
                fill: white;
            }
        }
    </style>
    <path
        d="M20.3932 8.18242C20.2578 8.29043 17.868 9.67537 17.868 12.7549C17.868 16.3168 20.909 17.577 21 17.6082C20.986 17.685 20.5169 19.3339 19.3966 21.0141C18.3977 22.4926 17.3545 23.9688 15.7675 23.9688C14.1804 23.9688 13.772 23.0207 11.9399 23.0207C10.1545 23.0207 9.51972 24 8.06805 24C6.61639 24 5.60349 22.6319 4.43889 20.9517C3.08992 18.9787 2 15.9136 2 13.0045C2 8.33843 4.95001 5.86379 7.85334 5.86379C9.39602 5.86379 10.682 6.90549 11.6505 6.90549C12.5724 6.90549 14.0101 5.80138 15.7651 5.80138C16.4303 5.80138 18.8202 5.86379 20.3932 8.18242ZM14.9319 3.82598C15.6578 2.94029 16.1712 1.71137 16.1712 0.482448C16.1712 0.312031 16.1572 0.139214 16.1269 0C14.946 0.0456046 13.541 0.808881 12.6938 1.81938C12.0286 2.59706 11.4078 3.82598 11.4078 5.07171C11.4078 5.25893 11.4382 5.44614 11.4522 5.50615C11.5268 5.52055 11.6482 5.53735 11.7696 5.53735C12.8291 5.53735 14.1618 4.80768 14.9319 3.82598Z" />
</svg>