<svg id="Layer_1" data-name="Layer 1" xmlns="http://www.w3.org/2000/svg" xmlns:xlink="http://www.w3.org/1999/xlink" viewBox="0 0 900.96 808.18"><defs><style>.cls-1,.cls-5{fill:#fff;}.cls-1,.cls-12,.cls-22,.cls-3{stroke:#030202;}.cls-1,.cls-12{stroke-linecap:round;stroke-linejoin:round;}.cls-1,.cls-12,.cls-3{stroke-width:8px;}.cls-2{fill:#f09721;}.cls-12,.cls-3,.cls-4{fill:none;}.cls-22,.cls-3{stroke-miterlimit:10;}.cls-6{clip-path:url(#clip-path);}.cls-7,.cls-9{fill:#f0efef;}.cls-8{fill:#e95458;}.cls-9{opacity:0.7;}.cls-10{fill:#b92d31;}.cls-11{fill:#821d22;}.cls-13{clip-path:url(#clip-path-2);}.cls-14{clip-path:url(#clip-path-3);}.cls-15{fill:#f8bd1c;}.cls-16{fill:#dc6726;}.cls-17{fill:#030202;}.cls-18{clip-path:url(#clip-path-4);}.cls-19{clip-path:url(#clip-path-5);}.cls-20{clip-path:url(#clip-path-6);}.cls-21{clip-path:url(#clip-path-7);}.cls-22{fill:#5b181a;}.cls-23{fill:#a22229;}.cls-24{fill:#f2f9f8;}.cls-25{fill:#231f20;}.cls-26{clip-path:url(#clip-path-8);}.cls-27{fill:#f1efef;}.cls-28{fill:#efbfbe;}.cls-29{fill:#f49821;}.cls-30{fill:#f9bf28;}.cls-31{clip-path:url(#clip-path-9);}.cls-32{fill:#f8f8f8;}</style><clipPath id="clip-path" transform="translate(-89.52 -111.32)"><path id="WINGS" class="cls-1" d="M751.56,695c8.77.67,16.82,0,23.3-3.49a12.84,12.84,0,0,0,6.51-9.12c1.39-8-.35-14.28-3.89-19.53,37.85.85,62.89-6,71.44-22.75a12.58,12.58,0,0,0-2.45-14.94c-5.3-5-12.59-7.34-21.42-7.74,52.58-12,86.12-28.3,86.55-52a10.39,10.39,0,0,0-7.83-10.19c-10.92-2.81-29-1.81-47.86-.37,54.3-12.81,93.69-32.55,94.44-70.25A11.77,11.77,0,0,0,939,472.68c-12.55-.42-28.12,5.9-44.9,14.91,48-30.81,86.4-63.13,86.11-101.49a8.08,8.08,0,0,0-9.69-7.88c-16.39,3.33-37.08,16.49-58.52,31.37,44.06-46.34,74.21-91.93,62.85-135.26a4.83,4.83,0,0,0-7-3c-19,10.11-40.88,32.54-63.92,59.61,37.85-71.73,47.5-127.49,24.56-164.82a3.42,3.42,0,0,0-6.21.86C876.64,331.93,755,292.68,758.84,480.3l-74.79,16.08s-50.78,90.65-36,102.21,68.79,102.86,68.79,102.86Z"/></clipPath><clipPath id="clip-path-2" transform="translate(-89.52 -111.32)"><path id="WINGS-2" data-name="WINGS" class="cls-1" d="M328.44,695c-8.77.67-16.82,0-23.3-3.49a12.84,12.84,0,0,1-6.51-9.12c-1.39-8,.35-14.28,3.89-19.53-37.85.85-62.89-6-71.44-22.75a12.58,12.58,0,0,1,2.45-14.94c5.3-5,12.59-7.34,21.42-7.74-52.58-12-86.12-28.3-86.55-52a10.39,10.39,0,0,1,7.83-10.19c10.92-2.81,29-1.81,47.86-.37-54.3-12.81-93.69-32.55-94.44-70.25a11.77,11.77,0,0,1,11.4-11.95c12.55-.42,28.12,5.9,44.9,14.91-48-30.81-86.4-63.13-86.11-101.49a8.08,8.08,0,0,1,9.69-7.88c16.39,3.33,37.08,16.49,58.52,31.37C124,363.25,93.84,317.66,105.2,274.33a4.83,4.83,0,0,1,7-3c19,10.11,40.88,32.54,63.92,59.61-37.85-71.73-47.5-127.49-24.56-164.82a3.42,3.42,0,0,1,6.21.86C203.36,331.93,325,292.68,321.16,480.3L396,496.38S446.73,587,432,598.59s-68.79,102.86-68.79,102.86Z"/></clipPath><clipPath id="clip-path-3" transform="translate(-89.52 -111.32)"><path id="kaki" class="cls-2" d="M605.34,845.5q.66,5.79.9,11.62c.11,2.68.13,5.48-1.06,7.89-1.07,2.19-3,3.8-4.87,5.4-3.79,3.28-7.41,6.89-9.76,11.32S588,891.34,589,896.25c3.63,17.63,124.07,19.48,142.22,8.09,9.53-6,11-16.41,1-26.71-6.73-6.92-14.44-12.8-23.6-15.86a96.72,96.72,0,0,0-26.06-4.87c-4-.18-8.24-.19-11.64-2.29-4.75-2.93-6.44-9.14-6.18-14.72s2-11,2.41-16.56c.63-9.28-2.59-18.34-5.76-27.08l-35.74,11.27-18.25,5.76c-2.55.8-5.19.89-6.43,3.32-1.08,2.13,0,5.54.53,7.67A161,161,0,0,1,605.34,845.5Z"/></clipPath><clipPath id="clip-path-4" transform="translate(-89.52 -111.32)"><path id="kaki-2" data-name="kaki" class="cls-2" d="M474.66,845.5q-.66,5.79-.9,11.62c-.11,2.68-.13,5.48,1.06,7.89,1.07,2.19,3,3.8,4.87,5.4,3.79,3.28,7.41,6.89,9.76,11.32s2.56,9.61,1.55,14.52c-3.63,17.63-124.07,19.48-142.22,8.09-9.53-6-11-16.41-1-26.71,6.73-6.92,14.44-12.8,23.6-15.86a96.72,96.72,0,0,1,26.06-4.87c4-.18,8.24-.19,11.64-2.29,4.75-2.93,6.44-9.14,6.18-14.72s-2-11-2.41-16.56c-.63-9.28,2.59-18.34,5.76-27.08l35.74,11.27,18.25,5.76c2.55.8,5.19.89,6.43,3.32,1.08,2.13,0,5.54-.53,7.67A161,161,0,0,0,474.66,845.5Z"/></clipPath><clipPath id="clip-path-5" transform="translate(-89.52 -111.32)"><path id="tangan" class="cls-3" d="M699.68,618.73c3.46,42.77,7.3,93,3.43,144.86,24.07-8.5,41.95-27.33,45.86-69.43-.45-31.63-10.7-63-27.86-94.28L699.68,584Z"/></clipPath><clipPath id="clip-path-6" transform="translate(-89.52 -111.32)"><path id="tangan-2" data-name="tangan" class="cls-3" d="M380.32,618.73c-3.46,42.77-7.3,93-3.43,144.86-24.07-8.5-41.95-27.33-45.86-69.43.45-31.63,10.7-63,27.86-94.28L380.32,584Z"/></clipPath><clipPath id="clip-path-7" transform="translate(-89.52 -111.32)"><path class="cls-3" d="M542,852.52c-103.06,0-169-64.93-169-135H711c0,70.07-65.91,135-169,135"/></clipPath><clipPath id="clip-path-8" transform="translate(-89.52 -111.32)"><path class="cls-4" d="M763.17,551.87c-11.78-1.37-23-8.4-33.43-22.93-5.69,31.85-7.35,66.72-39,79.07-9.36-3.47-13-17.75-15.64-34.07-14.5,26.83-26.07,55.91-71.36,59.15-7.32-6.07-8.73-16.91-6.83-30.41.06-.44.12-.87.19-1.31l-.38.57c-17.17,25.53-36.21,39-56.72,43.13-20.51-4.1-39.55-17.6-56.72-43.13l-.38-.57c.07.44.13.87.19,1.31,1.9,13.5.49,24.34-6.83,30.41-45.29-3.24-56.86-32.32-71.36-59.15-2.6,16.32-6.28,30.6-15.64,34.07-31.65-12.35-33.31-47.22-39-79.07-10.45,14.53-21.66,21.56-33.43,22.93q3.6-12.09,6.85-23.51c2.76-9.68,5.31-18.94,7.58-27.7a427.72,427.72,0,0,0,11.86-71.3C351.52,330,433.2,251.46,533.93,248h-2.06c2.42-.09,4.86-.14,7.3-.14h1.66q3.66,0,7.29.14h-2.06c100.74,3.44,182.42,82,190.82,181.34a426.7,426.7,0,0,0,11.86,71.3c2.27,8.76,4.82,18,7.58,27.7Q759.56,539.76,763.17,551.87Z"/></clipPath><clipPath id="clip-path-9" transform="translate(-89.52 -111.32)"><path class="cls-4" d="M589.54,481.6c-.46.43-.93.85-1.43,1.25a29,29,0,0,1-2.74,2c-3.87,2.52-8.85,4.5-15.69,5.58-7.8,1.3-15.48,6.45-23.1,13.37a9.77,9.77,0,0,1-13.15,0c-7.63-6.92-15.3-12.07-23.1-13.37-6.84-1.08-11.82-3.06-15.69-5.58a30.09,30.09,0,0,1-2.91-2.16c-.44-.36-.85-.73-1.26-1.1a9.82,9.82,0,0,1-2.72-9.83c9.77-34.15,28.39-46.8,50.71-50.5a9.36,9.36,0,0,1,3.08,0c22.33,3.7,41,16.35,50.71,50.49A9.79,9.79,0,0,1,589.54,481.6Z"/></clipPath></defs><title>Multos Mascot</title><g id="WINGS-3" data-name="WINGS"><path id="WINGS-4" data-name="WINGS" class="cls-5" d="M751.56,695c8.77.67,16.82,0,23.3-3.49a12.84,12.84,0,0,0,6.51-9.12c1.39-8-.35-14.28-3.89-19.53,37.85.85,62.89-6,71.44-22.75a12.58,12.58,0,0,0-2.45-14.94c-5.3-5-12.59-7.34-21.42-7.74,52.58-12,86.12-28.3,86.55-52a10.39,10.39,0,0,0-7.83-10.19c-10.92-2.81-29-1.81-47.86-.37,54.3-12.81,93.69-32.55,94.44-70.25A11.77,11.77,0,0,0,939,472.68c-12.55-.42-28.12,5.9-44.9,14.91,48-30.81,86.4-63.13,86.11-101.49a8.08,8.08,0,0,0-9.69-7.88c-16.39,3.33-37.08,16.49-58.52,31.37,44.06-46.34,74.21-91.93,62.85-135.26a4.83,4.83,0,0,0-7-3c-19,10.11-40.88,32.54-63.92,59.61,37.85-71.73,47.5-127.49,24.56-164.82a3.42,3.42,0,0,0-6.21.86C876.64,331.93,755,292.68,758.84,480.3l-74.79,16.08s-50.78,90.65-36,102.21,68.79,102.86,68.79,102.86Z" transform="translate(-89.52 -111.32)"/><g class="cls-6"><path class="cls-7" d="M927.7,555.2l-54.05,23.9a464.85,464.85,0,0,1-59.55,21.63C793,606.82,768.5,614,769.23,614.34c1.29.64,16.7,4.58,16.7,4.58l90.34-7.79Z" transform="translate(-89.52 -111.32)"/><path class="cls-7" d="M987.48,374.88c-35.73,43.68-73.71,93.75-123,109.07,0,0-10.07,17.25-37.07,32.35L946,461S996.48,420.3,987.48,374.88Z" transform="translate(-89.52 -111.32)"/><path class="cls-7" d="M965.2,436.59c-29.4,53.36-58.08,90.32-114.08,101-.54,6.1-30.08,32.17-47.5,41.09L927.05,528.2S974.2,482,965.2,436.59Z" transform="translate(-89.52 -111.32)"/><path class="cls-7" d="M959.2,247.88c43.28,37.85-69.06,187.34-48.54,162.19l56-45.05,23.78-86.57Z" transform="translate(-89.52 -111.32)"/><path class="cls-7" d="M909.7,149.23s45.64,58.5,0,159.43L964.34,236l-12.22-76.5s-45-54.64-46.28-47.57S909.7,149.23,909.7,149.23Z" transform="translate(-89.52 -111.32)"/><path class="cls-7" d="M781.77,628.8c31.4,12.43,64.13,9.91,97.07,5.15L768.48,712.16s-25.28-1.71-27.86-75.43Z" transform="translate(-89.52 -111.32)"/><path class="cls-8" d="M732.27,657.41c8.66,4.52,12.65,14.94,26.57,12a6,6,0,0,0,4.38-3.68c3.82-10.07-2.34-19.8-7.17-29.57,13.62,4.18,27.21,14.91,41.69,1.49a8.5,8.5,0,0,0-1.89-13.78c-3.82-2-8.7-3.61-12.15-6.68,10,9.47,57.83-9.46,59.62-30.05a10.93,10.93,0,0,0-8.86-11.51c-7.94-1.66-19.07.31-30.84,3,23.06-15.2,51.13-27.71,49.83-55.93.64-8-11.25-10.93-26-6.43,16.51-9.61,46.3-31.18,49.21-65.22a8.79,8.79,0,0,0-5.83-9.06c-6.7-2.35-16.15-.51-25.06,2,24.32-27.26,44.85-53.72,39.73-74.82a7,7,0,0,0-7.2-5.34c-7,.39-18.6,5.11-32.53,12C891,314.91,886.09,274,876.91,234.73L756.05,338.88,710.62,573.73Z" transform="translate(-89.52 -111.32)"/><path class="cls-9" d="M878.68,226.86l4,42-50.12,51.64A80.33,80.33,0,0,0,815.16,348l-4,10.69-12-48.76Z" transform="translate(-89.52 -111.32)"/><path class="cls-10" d="M812.76,274.59s14,81.32-20.71,130.82c5-4.27,9.68-6.82,14.09-8,11.83-3.11,22.42,8,19.28,19.83-4.07,15.29-20.77,28.54-38.51,41.62,13.65-5,24.9-4.69,34.33-.34a15.72,15.72,0,0,1,8.27,19.55c-10.1,28.44-40.75,38.9-69.17,50.64,17.93-3.8,36.07-8.2,50-.8a9.23,9.23,0,0,1,3,13.64C797,563.93,772,564,748.74,568.38c13.52-.52,24.06,2,31.39,7.94a9.51,9.51,0,0,1-1.53,15.86c-15.36,7.94-26.7-.71-39.26-4.3a38.84,38.84,0,0,1,11.75,17.25,14.46,14.46,0,0,1-6.58,17c-20,11.51-28.12-3.3-36.89-16.69l4.31-184.68Z" transform="translate(-89.52 -111.32)"/><path class="cls-11" d="M738.05,522.73,730,553c10,9.35,22.94,21.61,21.21,28-6.86,3-13.72,2.72-20.57-4.5,3.5,8.49,5.38,16.51,2.57,23.14-5.9,3.53-16.56-4.16-26.48-10.13L680.2,547.8l19.25-61.07,46.32-6.43-7.72,42.43" transform="translate(-89.52 -111.32)"/></g><path id="WINGS-5" data-name="WINGS" class="cls-12" d="M751.56,695c8.77.67,16.82,0,23.3-3.49a12.84,12.84,0,0,0,6.51-9.12c1.39-8-.35-14.28-3.89-19.53,37.85.85,62.89-6,71.44-22.75a12.58,12.58,0,0,0-2.45-14.94c-5.3-5-12.59-7.34-21.42-7.74,52.58-12,86.12-28.3,86.55-52a10.39,10.39,0,0,0-7.83-10.19c-10.92-2.81-29-1.81-47.86-.37,54.3-12.81,93.69-32.55,94.44-70.25A11.77,11.77,0,0,0,939,472.68c-12.55-.42-28.12,5.9-44.9,14.91,48-30.81,86.4-63.13,86.11-101.49a8.08,8.08,0,0,0-9.69-7.88c-16.39,3.33-37.08,16.49-58.52,31.37,44.06-46.34,74.21-91.93,62.85-135.26a4.83,4.83,0,0,0-7-3c-19,10.11-40.88,32.54-63.92,59.61,37.85-71.73,47.5-127.49,24.56-164.82a3.42,3.42,0,0,0-6.21.86C876.64,331.93,755,292.68,758.84,480.3l-74.79,16.08s-50.78,90.65-36,102.21,68.79,102.86,68.79,102.86Z" transform="translate(-89.52 -111.32)"/><path id="WINGS-6" data-name="WINGS" class="cls-5" d="M328.44,695c-8.77.67-16.82,0-23.3-3.49a12.84,12.84,0,0,1-6.51-9.12c-1.39-8,.35-14.28,3.89-19.53-37.85.85-62.89-6-71.44-22.75a12.58,12.58,0,0,1,2.45-14.94c5.3-5,12.59-7.34,21.42-7.74-52.58-12-86.12-28.3-86.55-52a10.39,10.39,0,0,1,7.83-10.19c10.92-2.81,29-1.81,47.86-.37-54.3-12.81-93.69-32.55-94.44-70.25a11.77,11.77,0,0,1,11.4-11.95c12.55-.42,28.12,5.9,44.9,14.91-48-30.81-86.4-63.13-86.11-101.49a8.08,8.08,0,0,1,9.69-7.88c16.39,3.33,37.08,16.49,58.52,31.37C124,363.25,93.84,317.66,105.2,274.33a4.83,4.83,0,0,1,7-3c19,10.11,40.88,32.54,63.92,59.61-37.85-71.73-47.5-127.49-24.56-164.82a3.42,3.42,0,0,1,6.21.86C203.36,331.93,325,292.68,321.16,480.3L396,496.38S446.73,587,432,598.59s-68.79,102.86-68.79,102.86Z" transform="translate(-89.52 -111.32)"/><g class="cls-13"><path class="cls-7" d="M152.3,555.2l54,23.9a464.85,464.85,0,0,0,59.55,21.63c21.15,6.09,45.6,13.24,44.87,13.61-1.29.64-16.7,4.58-16.7,4.58l-90.34-7.79Z" transform="translate(-89.52 -111.32)"/><path class="cls-7" d="M92.52,374.88c35.73,43.68,73.71,93.75,123,109.07,0,0,10.07,17.25,37.07,32.35L134,461S83.52,420.3,92.52,374.88Z" transform="translate(-89.52 -111.32)"/><path class="cls-7" d="M114.8,436.59c29.4,53.36,58.08,90.32,114.08,101,.54,6.1,30.08,32.17,47.5,41.09L153,528.2S105.8,482,114.8,436.59Z" transform="translate(-89.52 -111.32)"/><path class="cls-7" d="M120.8,247.88c-43.28,37.85,69.06,187.34,48.54,162.19L113.3,365,89.52,278.45Z" transform="translate(-89.52 -111.32)"/><path class="cls-7" d="M170.3,149.23s-45.64,58.5,0,159.43L115.66,236l12.22-76.5s45-54.64,46.28-47.57S170.3,149.23,170.3,149.23Z" transform="translate(-89.52 -111.32)"/><path class="cls-7" d="M298.23,628.8c-31.4,12.43-64.13,9.91-97.07,5.15l110.36,78.21s25.28-1.71,27.86-75.43Z" transform="translate(-89.52 -111.32)"/><path class="cls-8" d="M347.73,657.41c-8.66,4.52-12.65,14.94-26.57,12a6,6,0,0,1-4.38-3.68C313,655.7,319.12,646,324,636.2c-13.62,4.18-27.21,14.91-41.69,1.49a8.5,8.5,0,0,1,1.89-13.78c3.82-2,8.7-3.61,12.15-6.68-10,9.47-57.83-9.46-59.62-30.05a10.93,10.93,0,0,1,8.86-11.51c7.94-1.66,19.07.31,30.84,3-23.06-15.2-51.13-27.71-49.83-55.93-.64-8,11.25-10.93,26-6.43-16.51-9.61-46.3-31.18-49.21-65.22a8.79,8.79,0,0,1,5.83-9.06c6.7-2.35,16.15-.51,25.06,2-24.32-27.26-44.85-53.72-39.73-74.82a7,7,0,0,1,7.2-5.34c7,.39,18.6,5.11,32.53,12C189,314.91,193.91,274,203.09,234.73L324,338.88l45.43,234.85Z" transform="translate(-89.52 -111.32)"/><path class="cls-9" d="M201.32,226.86l-3.95,42,50.12,51.64A80.33,80.33,0,0,1,264.84,348l4,10.69,12-48.76Z" transform="translate(-89.52 -111.32)"/><path class="cls-10" d="M267.24,274.59s-14,81.32,20.71,130.82c-5-4.27-9.68-6.82-14.09-8-11.83-3.11-22.42,8-19.28,19.83,4.07,15.29,20.77,28.54,38.51,41.62-13.65-5-24.9-4.69-34.33-.34a15.72,15.72,0,0,0-8.27,19.55c10.1,28.44,40.75,38.9,69.17,50.64-17.93-3.8-36.07-8.2-50-.8a9.23,9.23,0,0,0-3,13.64C283,563.93,308,564,331.26,568.38c-13.52-.52-24.06,2-31.39,7.94a9.51,9.51,0,0,0,1.53,15.86c15.36,7.94,26.7-.71,39.26-4.3a38.84,38.84,0,0,0-11.75,17.25,14.46,14.46,0,0,0,6.58,17c20,11.51,28.12-3.3,36.89-16.69l-4.31-184.68Z" transform="translate(-89.52 -111.32)"/><path class="cls-11" d="M342,522.73,350,553c-10,9.35-22.94,21.61-21.21,28,6.86,3,13.72,2.72,20.57-4.5-3.5,8.49-5.38,16.51-2.57,23.14,5.9,3.53,16.56-4.16,26.48-10.13L399.8,547.8l-19.25-61.07-46.32-6.43L342,522.73" transform="translate(-89.52 -111.32)"/></g><path id="WINGS-7" data-name="WINGS" class="cls-12" d="M328.44,695c-8.77.67-16.82,0-23.3-3.49a12.84,12.84,0,0,1-6.51-9.12c-1.39-8,.35-14.28,3.89-19.53-37.85.85-62.89-6-71.44-22.75a12.58,12.58,0,0,1,2.45-14.94c5.3-5,12.59-7.34,21.42-7.74-52.58-12-86.12-28.3-86.55-52a10.39,10.39,0,0,1,7.83-10.19c10.92-2.81,29-1.81,47.86-.37-54.3-12.81-93.69-32.55-94.44-70.25a11.77,11.77,0,0,1,11.4-11.95c12.55-.42,28.12,5.9,44.9,14.91-48-30.81-86.4-63.13-86.11-101.49a8.08,8.08,0,0,1,9.69-7.88c16.39,3.33,37.08,16.49,58.52,31.37C124,363.25,93.84,317.66,105.2,274.33a4.83,4.83,0,0,1,7-3c19,10.11,40.88,32.54,63.92,59.61-37.85-71.73-47.5-127.49-24.56-164.82a3.42,3.42,0,0,1,6.21.86C203.36,331.93,325,292.68,321.16,480.3L396,496.38S446.73,587,432,598.59s-68.79,102.86-68.79,102.86Z" transform="translate(-89.52 -111.32)"/></g><g id="FEET"><g id="kaki-3" data-name="kaki"><path id="kaki-4" data-name="kaki" class="cls-2" d="M605.34,845.5q.66,5.79.9,11.62c.11,2.68.13,5.48-1.06,7.89-1.07,2.19-3,3.8-4.87,5.4-3.79,3.28-7.41,6.89-9.76,11.32S588,891.34,589,896.25c3.63,17.63,124.07,19.48,142.22,8.09,9.53-6,11-16.41,1-26.71-6.73-6.92-14.44-12.8-23.6-15.86a96.72,96.72,0,0,0-26.06-4.87c-4-.18-8.24-.19-11.64-2.29-4.75-2.93-6.44-9.14-6.18-14.72s2-11,2.41-16.56c.63-9.28-2.59-18.34-5.76-27.08l-35.74,11.27-18.25,5.76c-2.55.8-5.19.89-6.43,3.32-1.08,2.13,0,5.54.53,7.67A161,161,0,0,1,605.34,845.5Z" transform="translate(-89.52 -111.32)"/><g class="cls-14"><path class="cls-15" d="M691.74,831.52s-19,31.61-82.88,35.68a9.17,9.17,0,0,0-8.11,6.18c-4.2,12.37-4.71,38.93,76,26.92,0,0,.86-10.5-4.5-19.5,0,0,18.9,20.41,42.43,18,0,0,2.79-13.07-9.43-23.57,0,0,21.86,23.36,32.36,22.5s29-19.5,26.79-23.35S691.74,831.52,691.74,831.52Z" transform="translate(-89.52 -111.32)"/><path class="cls-16" d="M672.24,880.8a88.4,88.4,0,0,1,6.24,6.45q3,3.39,5.63,7.07A78.75,78.75,0,0,1,689,902a66.81,66.81,0,0,1,4,8.36,2.51,2.51,0,1,1-4.65,1.88,1.92,1.92,0,0,1-.11-.31l0-.1a61.91,61.91,0,0,0-2.59-8.21,74.14,74.14,0,0,0-3.67-8q-2.06-3.9-4.5-7.63A84.8,84.8,0,0,0,672.24,880.8Z" transform="translate(-89.52 -111.32)"/><path class="cls-16" d="M705.24,875.23c2.4,2.09,4.69,4.3,6.93,6.57s4.4,4.64,6.44,7.12a68.63,68.63,0,0,1,5.75,7.86,34.67,34.67,0,0,1,4.22,9.24,2.5,2.5,0,1,1-4.84,1.29,1.65,1.65,0,0,1-.06-.32v0a30.75,30.75,0,0,0-2.62-8.42,65.52,65.52,0,0,0-4.46-8.16c-1.66-2.66-3.47-5.25-5.37-7.77S707.34,877.62,705.24,875.23Z" transform="translate(-89.52 -111.32)"/></g><g id="kaki-5" data-name="kaki"><path class="cls-17" d="M661.37,796.25c3.17,8.74,6.39,17.8,5.76,27.08-.38,5.57-2.15,11-2.41,16.56s1.43,11.79,6.18,14.72c3.4,2.1,7.64,2.11,11.64,2.29a96.72,96.72,0,0,1,26.06,4.87c9.16,3.06,16.87,8.94,23.6,15.86,10,10.3,8.55,20.73-1,26.71-7.51,4.71-32.51,7.16-59.52,7.16-38.28,0-80.57-4.92-82.7-15.25-1-4.91-.8-10.09,1.55-14.52s6-8,9.76-11.32c1.85-1.6,3.8-3.21,4.87-5.4,1.19-2.41,1.17-5.21,1.06-7.89q-.24-5.82-.9-11.62a161,161,0,0,0-3.86-21.23c-.54-2.13-1.61-5.54-.53-7.67,1.24-2.43,3.88-2.52,6.43-3.32l18.25-5.76,35.74-11.27m4.91-9.94L659,788.62l-17.87,5.63-17.87,5.64-6.05,1.91L605,805.65c-.33.1-.76.21-1.21.32-2.56.65-7.34,1.86-9.95,7-2.35,4.62-1,9.64-.25,12.64,0,.21.11.42.15.61a152.86,152.86,0,0,1,3.68,20.17c.41,3.66.7,7.37.85,11,0,1,.13,3.27-.24,4a14,14,0,0,1-2.61,2.61l-.33.29c-3.77,3.26-8.48,7.76-11.59,13.62-3,5.69-3.82,12.56-2.31,19.87,1.82,8.88,12.1,14.2,34.35,17.79,15.17,2.45,35.65,3.85,56.18,3.85,15.16,0,51.72-.82,63.77-8.38,6.58-4.13,10.64-10.12,11.45-16.88.63-5.26-.41-13.38-9-22.19s-17.42-14.73-26.8-17.87a104.4,104.4,0,0,0-28.22-5.27l-1,0c-2.67-.12-5.43-.24-6.77-1.07-1.57-1-2.55-4.06-2.39-7.53a56.45,56.45,0,0,1,1.09-7.51,73.83,73.83,0,0,0,1.31-8.89c.76-11.12-3-21.33-6.21-30.35l-2.62-7.21Z" transform="translate(-89.52 -111.32)"/></g></g><path class="cls-17" d="M682.85,911.7c.95-5.51,1.36-11.18.14-16.65a24.7,24.7,0,0,0-3.11-7.79,26.68,26.68,0,0,0-5.66-6.46,27.41,27.41,0,0,1,6.68,5.73,26.67,26.67,0,0,1,4.49,7.8,37.32,37.32,0,0,1,2.09,8.84,62.21,62.21,0,0,1,.34,9.05,2.51,2.51,0,1,1-5-.14,2,2,0,0,1,0-.34Z" transform="translate(-89.52 -111.32)"/><path class="cls-17" d="M718,907.06a29.75,29.75,0,0,0,.19-8.89,28.67,28.67,0,0,0-2.63-8.69A43.87,43.87,0,0,0,703.64,875a45,45,0,0,1,14.11,13.23,31.75,31.75,0,0,1,4.13,9.16A34.09,34.09,0,0,1,723,907.59a2.51,2.51,0,0,1-5-.18,1.63,1.63,0,0,1,0-.31Z" transform="translate(-89.52 -111.32)"/><g id="kaki-6" data-name="kaki"><path id="kaki-7" data-name="kaki" class="cls-2" d="M474.66,845.5q-.66,5.79-.9,11.62c-.11,2.68-.13,5.48,1.06,7.89,1.07,2.19,3,3.8,4.87,5.4,3.79,3.28,7.41,6.89,9.76,11.32s2.56,9.61,1.55,14.52c-3.63,17.63-124.07,19.48-142.22,8.09-9.53-6-11-16.41-1-26.71,6.73-6.92,14.44-12.8,23.6-15.86a96.72,96.72,0,0,1,26.06-4.87c4-.18,8.24-.19,11.64-2.29,4.75-2.93,6.44-9.14,6.18-14.72s-2-11-2.41-16.56c-.63-9.28,2.59-18.34,5.76-27.08l35.74,11.27,18.25,5.76c2.55.8,5.19.89,6.43,3.32,1.08,2.13,0,5.54-.53,7.67A161,161,0,0,0,474.66,845.5Z" transform="translate(-89.52 -111.32)"/><g class="cls-18"><path class="cls-15" d="M388.26,831.52s19,31.61,82.88,35.68a9.17,9.17,0,0,1,8.11,6.18c4.2,12.37,4.71,38.93-76,26.92,0,0-.86-10.5,4.5-19.5,0,0-18.9,20.41-42.43,18,0,0-2.79-13.07,9.43-23.57,0,0-21.86,23.36-32.36,22.5s-29-19.5-26.79-23.35S388.26,831.52,388.26,831.52Z" transform="translate(-89.52 -111.32)"/><path class="cls-16" d="M407.76,880.8a84.8,84.8,0,0,0-5.24,7.21q-2.44,3.72-4.5,7.63a74.14,74.14,0,0,0-3.67,8,61.91,61.91,0,0,0-2.59,8.21l0,.08a2.51,2.51,0,1,1-4.86-1.22,1.8,1.8,0,0,1,.1-.33,66.81,66.81,0,0,1,4-8.36,78.75,78.75,0,0,1,4.93-7.66q2.67-3.68,5.63-7.07A88.4,88.4,0,0,1,407.76,880.8Z" transform="translate(-89.52 -111.32)"/><path class="cls-16" d="M374.76,875.23c-2.1,2.39-4.08,4.87-6,7.39s-3.71,5.11-5.37,7.77a65.52,65.52,0,0,0-4.46,8.16,30.75,30.75,0,0,0-2.62,8.42h0a2.51,2.51,0,0,1-5-.63,3.2,3.2,0,0,1,.07-.33,34.67,34.67,0,0,1,4.22-9.24,68.63,68.63,0,0,1,5.75-7.86c2-2.48,4.21-4.84,6.44-7.12S372.36,877.32,374.76,875.23Z" transform="translate(-89.52 -111.32)"/></g><g id="kaki-8" data-name="kaki"><path class="cls-17" d="M418.63,796.25l35.74,11.27,18.25,5.76c2.55.8,5.19.89,6.43,3.32,1.08,2.13,0,5.54-.53,7.67a161,161,0,0,0-3.86,21.23q-.66,5.79-.9,11.62c-.11,2.68-.13,5.48,1.06,7.89,1.07,2.19,3,3.8,4.87,5.4,3.79,3.28,7.41,6.89,9.76,11.32s2.56,9.61,1.55,14.52c-2.13,10.33-44.42,15.25-82.7,15.25-27,0-52-2.45-59.52-7.16-9.53-6-11-16.41-1-26.71,6.73-6.92,14.44-12.8,23.6-15.86a96.72,96.72,0,0,1,26.06-4.87c4-.18,8.24-.19,11.64-2.29,4.75-2.93,6.44-9.14,6.18-14.72s-2-11-2.41-16.56c-.63-9.28,2.59-18.34,5.76-27.08m-4.91-9.94-2.62,7.21c-3.26,9-7,19.23-6.21,30.35a73.83,73.83,0,0,0,1.31,8.89,56.45,56.45,0,0,1,1.09,7.51c.16,3.47-.82,6.57-2.39,7.53-1.34.83-4.1,1-6.77,1.07l-1.05,0a104.4,104.4,0,0,0-28.22,5.27c-9.38,3.14-18.14,9-26.8,17.87s-9.61,16.93-9,22.19c.81,6.76,4.87,12.75,11.45,16.88,12.05,7.56,48.61,8.38,63.77,8.38,20.53,0,41-1.4,56.18-3.85,22.25-3.59,32.53-8.91,34.35-17.79,1.51-7.31.71-14.18-2.31-19.87-3.11-5.86-7.82-10.36-11.59-13.62l-.33-.29a14,14,0,0,1-2.61-2.61c-.37-.76-.28-3.05-.24-4,.15-3.67.44-7.38.85-11a152.86,152.86,0,0,1,3.68-20.17c0-.19.1-.4.15-.61.79-3,2.1-8-.25-12.64-2.61-5.15-7.39-6.36-9.95-7-.45-.11-.88-.22-1.21-.32l-12.18-3.85-6.07-1.91-17.87-5.64L421,788.62l-7.31-2.31Z" transform="translate(-89.52 -111.32)"/></g></g><path class="cls-17" d="M392.18,912.22a62.21,62.21,0,0,1,.34-9.05,37.32,37.32,0,0,1,2.09-8.84,26.67,26.67,0,0,1,4.49-7.8,27.41,27.41,0,0,1,6.68-5.73,26.68,26.68,0,0,0-5.66,6.46,24.7,24.7,0,0,0-3.11,7.79c-1.22,5.47-.81,11.14.14,16.65v0a2.51,2.51,0,0,1-5,.85A2.19,2.19,0,0,1,392.18,912.22Z" transform="translate(-89.52 -111.32)"/><path class="cls-17" d="M357,907.59a34.09,34.09,0,0,1,1.12-10.18,31.75,31.75,0,0,1,4.13-9.16A45,45,0,0,1,376.36,875a43.87,43.87,0,0,0-11.94,14.46,28.67,28.67,0,0,0-2.63,8.69,29.75,29.75,0,0,0,.19,8.89v0a2.5,2.5,0,1,1-4.94.82C357,907.8,357,907.69,357,907.59Z" transform="translate(-89.52 -111.32)"/></g><g id="BELLY"><g class="cls-19"><path class="cls-11" d="M680.75,756.66c40.23,16,66.52,14.87,100.79,44.44L752.4,685.16l-61.06-39.65-33.59,16.3Z" transform="translate(-89.52 -111.32)"/><path class="cls-10" d="M688.43,660.63c29.44,16,51.43,33.1,76.5,62.67L733.11,591.2l-34.18-23.48L674.35,584Z" transform="translate(-89.52 -111.32)"/></g><path id="tangan-3" data-name="tangan" class="cls-3" d="M699.68,618.73c3.46,42.77,7.3,93,3.43,144.86,24.07-8.5,41.95-27.33,45.86-69.43-.45-31.63-10.7-63-27.86-94.28L699.68,584Z" transform="translate(-89.52 -111.32)"/><g class="cls-20"><path class="cls-11" d="M399.25,756.66c-40.23,16-66.52,14.87-100.79,44.44L327.6,685.16l61.06-39.65,33.59,16.3Z" transform="translate(-89.52 -111.32)"/><path class="cls-10" d="M391.57,660.63c-29.44,16-51.43,33.1-76.5,62.67l31.82-132.1,34.18-23.48L405.65,584Z" transform="translate(-89.52 -111.32)"/></g><path id="tangan-4" data-name="tangan" class="cls-3" d="M380.32,618.73c-3.46,42.77-7.3,93-3.43,144.86-24.07-8.5-41.95-27.33-45.86-69.43.45-31.63,10.7-63,27.86-94.28L380.32,584Z" transform="translate(-89.52 -111.32)"/><g class="cls-21"><path class="cls-22" d="M542,852.52c-103.06,0-169-64.93-169-135H711c0,70.07-65.91,135-169,135" transform="translate(-89.52 -111.32)"/><path class="cls-23" d="M355.36,705.3C479.05,872,603.31,866,728.64,705.3Z" transform="translate(-89.52 -111.32)"/></g><path class="cls-3" d="M542,852.52c-103.06,0-169-64.93-169-135H711c0,70.07-65.91,135-169,135" transform="translate(-89.52 -111.32)"/><g id="kantong_doraemon" data-name="kantong doraemon"><path class="cls-10" d="M543.37,778.26c-55.74,0-112.66-19.24-169.18-57.19a3.52,3.52,0,0,1-1.54-3.18l11.49-149.78a3.5,3.5,0,0,1,3.49-3.23H696.37a3.51,3.51,0,0,1,3.49,3.23l11.49,149.78a3.53,3.53,0,0,1-1.5,3.15C655.14,759,599.12,778.26,543.37,778.26Z" transform="translate(-89.52 -111.32)"/><path d="M696.37,568.38l11.49,149.78q-81.57,56.61-164.49,56.6t-167.23-56.6l11.49-149.78H696.37m0-7H387.63a7,7,0,0,0-7,6.46L369.16,717.63a7,7,0,0,0,3.08,6.34c28.48,19.13,57.29,33.68,85.61,43.27a266.51,266.51,0,0,0,85.52,14.52,260.55,260.55,0,0,0,84.86-14.53c27.9-9.6,56-24.17,83.62-43.32a7,7,0,0,0,3-6.28L703.35,567.84a7,7,0,0,0-7-6.46Z" transform="translate(-89.52 -111.32)"/></g><path class="cls-8" d="M678.42,585.76H405.58c-14.09,32.85-20.05,75.81-19.12,127.35q77,48.36,155.29,48.11h.5q78.29.25,155.29-48.11C698.47,661.57,692.51,618.61,678.42,585.76Z" transform="translate(-89.52 -111.32)"/><g id="m"><path class="cls-24" d="M539.58,742h0c-9.32,0-17.75-4.21-21.71-10.58q-8.57-13.63-15.57-27.68l-1.11,8.66c-1.58,14.87-19.28,25.16-39.16,20.38h0q6.6-27.47,13.19-54.93c3.51-13.54,17.31-21.7,31-19.88h0a13.23,13.23,0,0,1,10.14,7.32,301.51,301.51,0,0,0,23.55,40.26,300.94,300.94,0,0,0,23.57-40.25A13.26,13.26,0,0,1,573.64,658h.12c13.71-1.82,27.51,6.34,31,19.88q6.6,27.47,13.19,54.93h0c-19.88,4.78-37.58-5.51-39.16-20.38l-1.14-8.9a321.32,321.32,0,0,1-16.51,28.22C557.12,738,548.76,742.07,539.58,742Z" transform="translate(-89.52 -111.32)"/></g></g><g id="HEAD"><path class="cls-5" d="M540,651.57a6.75,6.75,0,0,1-1.27-.12c-18-3.6-34.42-13.82-49-30.47-1.27,7.37-4.35,13-9.28,17.12a6.5,6.5,0,0,1-4.15,1.49h-.46c-39.69-2.84-56-24.79-68.23-46.86-2.93,9.88-7.59,18.25-16.05,21.39a6.49,6.49,0,0,1-2.26.4,6.41,6.41,0,0,1-2.36-.44c-30.49-11.89-36.25-42.57-40.76-70.3-8.69,8.48-18.26,13.36-28.56,14.56a6.3,6.3,0,0,1-.75,0A6.5,6.5,0,0,1,310.6,550c2.45-8.22,4.74-16.1,6.83-23.43,3-10.38,5.42-19.39,7.54-27.56a422.91,422.91,0,0,0,11.67-70.21A205.05,205.05,0,0,1,488.87,248.05c-2.89-6-4-10.58-3.6-14.44a6.49,6.49,0,0,1,10.59-4.32c8.37,6.89,15.78,9.86,22.62,11.29-3.27-8.11-5.06-17.52.1-26.46a6.51,6.51,0,0,1,5.63-3.25h0a6.52,6.52,0,0,1,5.63,3.26c14.39,24.94,26.35,26.86,39,28.9a74.11,74.11,0,0,1,12,2.63A206.15,206.15,0,0,1,692,309.75a203,203,0,0,1,51.4,119.07A423.06,423.06,0,0,0,755,499c2.12,8.19,4.59,17.2,7.54,27.55,2.08,7.33,4.38,15.21,6.83,23.44a6.5,6.5,0,0,1-6.23,8.36,6.3,6.3,0,0,1-.75,0c-10.3-1.2-19.86-6.08-28.56-14.56-4.51,27.73-10.28,58.41-40.76,70.3a6.41,6.41,0,0,1-2.36.44,6.53,6.53,0,0,1-2.26-.4C680,611,675.36,602.6,672.43,592.72c-12.24,22.07-28.54,44-68.23,46.86h-.46a6.5,6.5,0,0,1-4.15-1.49c-4.93-4.09-8-9.75-9.27-17.11-14.62,16.63-31.06,26.86-49.05,30.46A6.75,6.75,0,0,1,540,651.57Z" transform="translate(-89.52 -111.32)"/><path class="cls-25" d="M524.21,217.37c20.71,35.91,39.21,29.11,54.94,34.57,85.05,17.39,150.27,89.17,157.73,177.42a426.7,426.7,0,0,0,11.86,71.3c2.27,8.76,4.82,18,7.58,27.7q3.24,11.4,6.85,23.51c-11.78-1.37-23-8.4-33.43-22.93-5.69,31.85-7.35,66.72-39,79.07-9.36-3.47-13-17.75-15.64-34.07-14.5,26.83-26.07,55.91-71.36,59.15-7.32-6.07-8.73-16.91-6.83-30.41.06-.44.12-.87.19-1.31l-.38.57c-17.17,25.53-36.21,39-56.72,43.13-20.51-4.1-39.55-17.6-56.72-43.13l-.38-.57c.07.44.13.87.19,1.31,1.9,13.5.49,24.34-6.83,30.41-45.29-3.24-56.86-32.32-71.36-59.15-2.6,16.32-6.28,30.6-15.64,34.07-31.65-12.35-33.31-47.22-39-79.07-10.45,14.53-21.66,21.56-33.43,22.93q3.6-12.09,6.85-23.51c2.76-9.68,5.31-18.94,7.58-27.7a427.72,427.72,0,0,0,11.86-71.3c7.39-87.49,71.58-158.81,155.55-177-4.62-7.65-7.38-14-6.94-18.09,13.43,11,24.91,13.2,36.1,14l1.74.12-.12-.21c-5.72-10.65-10.8-21.24-5.24-30.86m0-13a13,13,0,0,0-11.26,6.5,30.83,30.83,0,0,0-3.89,19.5,52.6,52.6,0,0,1-9.07-6.1,13,13,0,0,0-21.19,8.65,26.2,26.2,0,0,0,1.32,10.83A211.23,211.23,0,0,0,330.17,428.27a417.37,417.37,0,0,1-11.49,69.13c-2.11,8.13-4.56,17.09-7.5,27.4-2.08,7.33-4.37,15.18-6.81,23.36a13,13,0,0,0,12.46,16.71,12.56,12.56,0,0,0,1.5-.08,51.52,51.52,0,0,0,23.29-8.89c1.91,10.35,4.35,20.61,8.43,30,7.29,16.81,18.57,28,34.48,34.21a13.09,13.09,0,0,0,9.25.07c6-2.23,11-6.63,14.78-13.12a96.13,96.13,0,0,0,14.05,17.27c13.64,13,30.89,20.15,52.72,21.71q.46,0,.93,0a13,13,0,0,0,8.3-3,31.31,31.31,0,0,0,7.88-9.83c13.64,13.06,28.7,21.29,45,24.55a13.13,13.13,0,0,0,5.1,0c16.31-3.26,31.37-11.49,45-24.55a31.31,31.31,0,0,0,7.88,9.83,13,13,0,0,0,8.3,3q.46,0,.93,0c21.83-1.56,39.08-8.66,52.72-21.71a96.13,96.13,0,0,0,14.05-17.27c3.8,6.49,8.75,10.89,14.78,13.12a13.09,13.09,0,0,0,9.25-.07c15.91-6.21,27.19-17.4,34.48-34.21,4.08-9.41,6.52-19.67,8.43-30a51.52,51.52,0,0,0,23.29,8.89,12.56,12.56,0,0,0,1.5.08,13,13,0,0,0,12.46-16.71c-2.44-8.18-4.73-16-6.81-23.35-2.94-10.32-5.39-19.28-7.5-27.41a416.65,416.65,0,0,1-11.49-69.13,211.41,211.41,0,0,0-167.29-188.9,81.75,81.75,0,0,0-12.65-2.76c-11.58-1.86-21.58-3.47-34.42-25.73a13,13,0,0,0-11.25-6.51Z" transform="translate(-89.52 -111.32)"/><g id="brewok"><g class="cls-26"><path class="cls-27" d="M760.6,447.73l-16.93,78.43L724.38,508.8S709.6,575.23,688.6,577l-10.72-21.86s-37.28,48.57-68.35,53.32L601,586.59s-33.53,35.57-61.71,38.6c-28.17-3-61.7-38.6-61.7-38.6L469,608.41c-31.07-4.75-68.35-53.32-68.35-53.32L389.91,577c-21-1.72-35.78-68.15-35.78-68.15l-19.29,17.36-16.93-78.43L276.74,560s-2.14,27.86,0,29.14,74.57,57.86,77.14,58.29S496.6,684.73,502.17,686s29.43,15.86,61,11.14S643.6,681.3,662,672.3s86.14-44.14,104.57-55.71S807.31,591.3,809,587.45,820.6,562.3,820.6,562.3Z" transform="translate(-89.52 -111.32)"/></g></g><g id="Mata_kanan" data-name="Mata kanan"><path id="mata" d="M688.31,419.84C687,404.55,676.52,390.3,662.23,384a44.93,44.93,0,0,0-22.76-3.69c-.49,0-1,.05-1.45.13l-1.43.26-2.85.51c-.94.24-1.86.52-2.79.79a21.89,21.89,0,0,0-2.73.92L625.54,384c-.89.36-1.71.86-2.56,1.3l-1.27.68-.63.35-.59.39-2.38,1.6a22.24,22.24,0,0,0-2.25,1.75c-.71.63-1.47,1.2-2.14,1.87a40.69,40.69,0,0,0-3.83,4.16c-.58.74-1.18,1.46-1.73,2.21l-1.52,2.36c-.25.4-.5.78-.74,1.18l-.63,1.25L604,405.59a40.43,40.43,0,0,0-2.95,10.54,37.42,37.42,0,0,0-.39,5.37c-.05.89-.1,4.37,0,5.23a.14.14,0,0,0,0-.07c0,.16,0,.32,0,.48a34.84,34.84,0,0,0,34.5,34.29h.19A34.29,34.29,0,1,0,619.1,397l1.26-.82a21.93,21.93,0,0,1,2-1.25,39.54,39.54,0,0,1,17.8-5.16c.77,0,1.55,0,2.32-.05a19.85,19.85,0,0,1,2.31.11c.76.07,1.54.07,2.3.19l2.27.39,1.14.19,1.11.3,2.22.58c.73.24,1.44.54,2.16.8a16.27,16.27,0,0,1,2.12.87l2.08,1c.7.31,1.32.77,2,1.14l1,.59a6.17,6.17,0,0,1,1,.64l1.85,1.36a19.29,19.29,0,0,1,1.78,1.47c.56.52,1.19,1,1.71,1.54a42,42,0,0,1,3.09,3.45c.47.61,1,1.19,1.44,1.82l1.26,1.95.64,1,.54,1,1.11,2.06a42,42,0,0,1,3,8.89c2.8,12.39-.6,26.29-9.64,37.11a38.63,38.63,0,0,0,13.89-16.3A40.75,40.75,0,0,0,688,431.15c.14-.93.31-1.86.36-2.8l.12-1.41c0-.47,0-.94,0-1.42l0-2.84C688.56,421.73,688.38,420.79,688.31,419.84Zm-39.93,22.29a4.75,4.75,0,1,1-4.74,4.75A4.75,4.75,0,0,1,648.38,442.13Zm-14.3-27.4a9.33,9.33,0,1,1-9.32-9.32A9.32,9.32,0,0,1,634.08,414.73Z" transform="translate(-89.52 -111.32)"/><g id="halis"><path d="M604.38,362.9a5,5,0,0,0-.09-.52,1.35,1.35,0,0,1-.08-.52l0-1.07a15.63,15.63,0,0,1,.28-2.1c.16-.66.35-1.32.57-1.95a18.69,18.69,0,0,1,.82-1.82,11.39,11.39,0,0,1,1-1.68,18.07,18.07,0,0,1,1.18-1.55,19,19,0,0,1,2.86-2.6,17.08,17.08,0,0,1,1.64-1c.28-.16.56-.3.85-.44s.59-.22.9-.32a16.13,16.13,0,0,1,1.85-.46c.31-.07.63-.1.94-.16s.64,0,1,0c1.29,0,2.56,0,3.81.12s2.47.27,3.66.32a37.38,37.38,0,0,1,13.24,3.69,23.88,23.88,0,0,1,2.9,1.58c.94.56,1.87,1.1,2.77,1.69,1.75,1.26,3.41,2.6,5,4l-.7,1.55c-1-.06-2.07-.16-3.08-.23s-2-.21-3-.26-2,0-2.94,0a19.35,19.35,0,0,0-2.85,0l-2.78.18c-.9,0-1.79.26-2.66.37a16.71,16.71,0,0,0-2.56.45c-.82.21-1.64.36-2.43.58a19.07,19.07,0,0,0-2.26,1,8.76,8.76,0,0,0-1,.67l-1,.66a8.14,8.14,0,0,1-4.09,1.53c-.78,0-1.55.17-2.44.14s-1.79,0-2.78,0c-.5,0-1,0-1.59,0s-1.12,0-1.73-.06-1.24,0-1.93-.11l-1.08-.05a2.53,2.53,0,0,0-.63,0,3,3,0,0,1-.67,0Z" transform="translate(-89.52 -111.32)"/></g><ellipse id="blush_on" data-name="blush on" class="cls-28" cx="676.18" cy="471.73" rx="21" ry="9.43" transform="translate(-148.85 -12.1) rotate(-8.04)"/></g><g id="Mata_kiriv" data-name="Mata kiriv"><path id="mata-2" data-name="mata" d="M391.46,422.68l0,2.84c0,.48,0,1,0,1.42l.12,1.41c.05.94.22,1.87.36,2.8a40.75,40.75,0,0,0,3.23,10.68,38.63,38.63,0,0,0,13.89,16.3c-9-10.82-12.44-24.72-9.64-37.11a42,42,0,0,1,3-8.89l1.11-2.06.54-1,.64-1,1.26-1.95c.46-.63,1-1.21,1.44-1.82a42,42,0,0,1,3.09-3.45c.52-.56,1.15-1,1.71-1.54a19.29,19.29,0,0,1,1.78-1.47l1.85-1.36a6.17,6.17,0,0,1,1-.64l1-.59c.67-.37,1.29-.83,2-1.14l2.08-1a16.27,16.27,0,0,1,2.12-.87c.72-.26,1.43-.56,2.16-.8l2.22-.58,1.11-.3,1.14-.19,2.27-.39c.76-.12,1.54-.12,2.3-.19a19.85,19.85,0,0,1,2.31-.11c.77,0,1.55,0,2.32.05a39.54,39.54,0,0,1,17.8,5.16,21.93,21.93,0,0,1,2,1.25l1.26.82a34.28,34.28,0,1,0-16.27,64.46h.19a35.25,35.25,0,0,0,34.5-34.29c0-.16,0-.32,0-.48a.14.14,0,0,0,0,.07c.09-.86,0-4.34,0-5.23a37.42,37.42,0,0,0-.39-5.37A40.43,40.43,0,0,0,476,405.59l-1.24-2.48-.63-1.25c-.24-.4-.49-.78-.74-1.18l-1.52-2.36c-.55-.75-1.15-1.47-1.73-2.21a40.69,40.69,0,0,0-3.83-4.16c-.67-.67-1.43-1.24-2.14-1.87a22.24,22.24,0,0,0-2.25-1.75l-2.38-1.6-.59-.39-.63-.35-1.27-.68c-.85-.44-1.67-.94-2.56-1.3l-2.68-1.09a21.89,21.89,0,0,0-2.73-.92c-.93-.27-1.86-.55-2.79-.79l-2.85-.51-1.43-.26c-.48-.08-1-.09-1.45-.13A44.93,44.93,0,0,0,417.77,384c-14.29,6.3-24.74,20.55-26.08,35.84C391.62,420.79,391.44,421.73,391.46,422.68Zm44.9,24.2a4.74,4.74,0,1,1-4.74-4.75A4.74,4.74,0,0,1,436.36,446.88Zm18.88-41.47a9.32,9.32,0,1,1-9.32,9.32A9.33,9.33,0,0,1,455.24,405.41Z" transform="translate(-89.52 -111.32)"/><g id="halis-2" data-name="halis"><path d="M474.73,364.35a3,3,0,0,1-.67,0,2.53,2.53,0,0,0-.63,0l-1.08.05c-.69.07-1.32.08-1.93.11s-1.19.06-1.73.06-1.09,0-1.59,0c-1,0-1.93,0-2.78,0s-1.66-.1-2.44-.14a8.14,8.14,0,0,1-4.09-1.53l-1-.66a8.76,8.76,0,0,0-1-.67,19.07,19.07,0,0,0-2.26-1c-.79-.22-1.61-.37-2.43-.58a16.71,16.71,0,0,0-2.56-.45c-.87-.11-1.76-.34-2.66-.37l-2.78-.18a19.35,19.35,0,0,0-2.85,0c-1,0-1.94.06-2.94,0s-2,.18-3,.26-2,.17-3.08.23l-.7-1.55c1.59-1.36,3.25-2.7,5-4,.9-.59,1.83-1.13,2.77-1.69a23.88,23.88,0,0,1,2.9-1.58,37.38,37.38,0,0,1,13.24-3.69c1.19-.05,2.41-.19,3.66-.32s2.52-.11,3.81-.12c.32,0,.64,0,1,0s.63.09.94.16a16.13,16.13,0,0,1,1.85.46c.31.1.61.2.9.32s.57.28.85.44a17.08,17.08,0,0,1,1.64,1,19,19,0,0,1,2.86,2.6,18.07,18.07,0,0,1,1.18,1.55,11.39,11.39,0,0,1,1,1.68,18.69,18.69,0,0,1,.82,1.82c.22.63.41,1.29.57,1.95a15.63,15.63,0,0,1,.28,2.1l0,1.07a1.35,1.35,0,0,1-.08.52,5,5,0,0,0-.09.52Z" transform="translate(-89.52 -111.32)"/></g><ellipse id="blush_on-2" data-name="blush on" class="cls-28" cx="403.82" cy="471.73" rx="9.43" ry="21" transform="translate(-209.28 694.28) rotate(-81.96)"/></g><g id="paruh"><path class="cls-29" d="M540.41,531.2c-19.33,0-37.9-16.61-52.29-46.76a4,4,0,0,1,1.15-4.88,4,4,0,0,1,5,.08,26.91,26.91,0,0,0,2.52,1.88,35.78,35.78,0,0,0,14.14,5c7.81,1.31,15.8,5.87,25.16,14.36a5.77,5.77,0,0,0,7.78,0c9.35-8.49,17.34-13.05,25.13-14.35a35.8,35.8,0,0,0,14.16-5,22.86,22.86,0,0,0,2.36-1.74,4.06,4.06,0,0,1,2.57-.93,4,4,0,0,1,3.6,5.74c-18.53,38.52-38.12,46.61-51.29,46.61Z" transform="translate(-89.52 -111.32)"/><path class="cls-25" d="M491.73,482.71a30.09,30.09,0,0,0,2.91,2.16c3.87,2.52,8.85,4.5,15.69,5.58,7.8,1.3,15.47,6.45,23.1,13.37a9.75,9.75,0,0,0,13.15,0c7.62-6.92,15.3-12.07,23.1-13.37,6.84-1.08,11.82-3.06,15.69-5.58a29,29,0,0,0,2.74-2c-15,31.12-31.66,44.35-47.69,44.35-18.24,0-35.63-17.12-48.69-44.49m0-8a8,8,0,0,0-7.22,11.45c15.09,31.62,35,49,55.91,49,10.32,0,20.27-4.22,29.57-12.54,9.13-8.17,17.65-20.39,25.33-36.34A8,8,0,0,0,583,476.71a21.39,21.39,0,0,1-2,1.47,31.82,31.82,0,0,1-12.56,4.37h-.07c-8.58,1.43-17.21,6.31-27.16,15.34a1.77,1.77,0,0,1-2.39,0c-10-9.05-18.6-13.92-27.17-15.35h-.07A31.77,31.77,0,0,1,499,478.17a24.29,24.29,0,0,1-2.15-1.6,8,8,0,0,0-5.12-1.86Z" transform="translate(-89.52 -111.32)"/><path class="cls-30" d="M540,510.37a13.75,13.75,0,0,1-9.27-3.59c-8.17-7.41-14.87-11.35-21.06-12.38a43.34,43.34,0,0,1-17.22-6.17,36.49,36.49,0,0,1-3.28-2.44c-.47-.38-.93-.79-1.38-1.21a13.77,13.77,0,0,1-3.89-13.89c9.1-31.81,26.23-48.76,53.9-53.35a13.47,13.47,0,0,1,4.39,0c27.68,4.59,44.81,21.53,53.9,53.33a13.71,13.71,0,0,1-3.82,13.85c-.61.58-1.14,1-1.67,1.46a30.91,30.91,0,0,1-3.05,2.24,43.32,43.32,0,0,1-17.25,6.19c-6.09,1-13,5.06-21,12.38A13.78,13.78,0,0,1,540,510.37Z" transform="translate(-89.52 -111.32)"/><path class="cls-25" d="M540,421.16a10,10,0,0,1,1.54.12c22.33,3.7,41,16.35,50.71,50.49a9.79,9.79,0,0,1-2.71,9.83c-.46.43-.93.85-1.43,1.25a29,29,0,0,1-2.74,2c-3.87,2.52-8.85,4.5-15.69,5.58-7.8,1.3-15.48,6.45-23.1,13.37a9.75,9.75,0,0,1-13.15,0c-7.63-6.92-15.3-12.07-23.1-13.37-6.84-1.08-11.82-3.06-15.69-5.58a30.09,30.09,0,0,1-2.91-2.16c-.44-.36-.85-.73-1.26-1.1a9.82,9.82,0,0,1-2.72-9.83c9.77-34.15,28.39-46.8,50.71-50.5a9.89,9.89,0,0,1,1.54-.12m0-8a18.19,18.19,0,0,0-2.86.23c-13.8,2.29-25,7.46-34.13,15.81-10.38,9.45-17.88,22.66-23,40.38A17.76,17.76,0,0,0,485,487.44l.06.06.06.05c.44.4.94.86,1.52,1.33a37,37,0,0,0,3.66,2.71A47.2,47.2,0,0,0,509,498.35c5.32.9,11.54,4.63,19,11.4a17.76,17.76,0,0,0,23.91,0c7.45-6.76,13.67-10.49,19-11.39a47.2,47.2,0,0,0,18.77-6.77,36.82,36.82,0,0,0,3.44-2.53c.58-.47,1.17-1,1.83-1.6a17.73,17.73,0,0,0,4.94-17.88c-5.07-17.71-12.57-30.92-23-40.37-9.17-8.35-20.34-13.52-34.15-15.81a17.94,17.94,0,0,0-2.84-.23Z" transform="translate(-89.52 -111.32)"/><g class="cls-31"><path class="cls-29" d="M540,544.59s61.67-7.71,65.53-7.71,10.93-65.15,10.93-65.15C556,468.3,540,494.88,540,494.88s-16-26.58-76.46-23.15c0,0,7.07,65.15,10.93,65.15S540,544.59,540,544.59" transform="translate(-89.52 -111.32)"/></g><path class="cls-25" d="M570.1,449.14a4.67,4.67,0,0,1-5.3,5.3,6.56,6.56,0,0,1-5.95-6.4c0-3.27,2.37-5.64,5.3-5.31S569.74,445.94,570.1,449.14Z" transform="translate(-89.52 -111.32)"/><path class="cls-25" d="M510.67,449.14a4.67,4.67,0,0,0,5.3,5.3,6.56,6.56,0,0,0,5.95-6.4c0-3.27-2.37-5.64-5.3-5.31S511,445.94,510.67,449.14Z" transform="translate(-89.52 -111.32)"/><ellipse class="cls-32" cx="449.79" cy="330.1" rx="4.5" ry="11.41"/></g></g></svg>