<svg width="36" height="36" viewBox="0 0 36 36" fill="none" xmlns="http://www.w3.org/2000/svg">
<path d="M18 0C8.07304 0 0 8.07139 0 17.9963C0 25.1298 4.17316 31.3108 10.2076 34.2203V34.2351H10.2372C12.586 35.3649 15.2228 36 18 36C27.927 36 36 27.9286 36 18.0037C36 8.07138 27.927 0 18 0ZM18 1.47692C27.1071 1.47692 34.5228 8.89108 34.5228 17.9963C34.5228 20.6105 33.9097 23.0917 32.824 25.2923C30.4456 24.1403 28.0304 23.2837 25.5929 22.7003V8.92062C25.5929 8.44062 25.2162 8.05662 24.7435 8.05662H21.7152H14.0854H11.057C10.5917 8.05662 10.2076 8.44062 10.2076 8.92062V22.7668C7.84407 23.3502 5.49528 24.192 3.18342 25.2997C2.09027 23.0917 1.47723 20.6178 1.47723 17.9963C1.47723 8.89108 8.8929 1.47692 18 1.47692ZM4.13623 26.9612C6.09356 25.9938 8.12474 25.248 10.215 24.7311V32.5588C7.74066 31.2369 5.65039 29.3022 4.13623 26.9612ZM14.0854 34.0431V15.6037C14.0854 13.4695 15.8359 11.7046 17.9261 11.7046C20.0164 11.7046 21.7152 13.4326 21.7152 15.5594C21.7152 15.5742 21.7078 15.5889 21.7078 15.6037H21.7152V22.0209C19.9352 21.8142 18.1477 21.7477 16.3603 21.8437L14.8904 23.9778C17.1801 23.7858 19.4107 23.8006 21.6118 24.0517C21.634 24.0517 21.6487 24.0517 21.6709 24.0591C21.6857 24.0591 21.7005 24.0591 21.7226 24.0665C22.1067 24.1108 23.5027 24.288 24.7805 24.6055L21.7226 25.6468V34.1022C20.5261 34.3754 19.2852 34.5305 18.0148 34.5305C16.6483 34.5157 15.341 34.3458 14.0854 34.0431ZM25.5856 32.6622V24.768C27.6684 25.2923 29.7292 26.0603 31.7973 27.0646C30.2462 29.4203 28.1042 31.3551 25.5856 32.6622Z" fill="url(#paint0_linear_222_1670)"/>
<defs>
<linearGradient id="paint0_linear_222_1670" x1="17.9997" y1="36.7789" x2="17.9997" y2="-5.51978" gradientUnits="userSpaceOnUse">
<stop offset="0.0858" stop-color="#8D29C1"/>
<stop offset="0.2383" stop-color="#942BBB"/>
<stop offset="0.4667" stop-color="#A92FAC"/>
<stop offset="0.7413" stop-color="#CA3793"/>
<stop offset="1" stop-color="#F03F77"/>
</linearGradient>
</defs>
</svg>
